<svg width="126" height="126" viewBox="0 0 126 126" fill="none" xmlns="http://www.w3.org/2000/svg">
<path fill-rule="evenodd" clip-rule="evenodd" d="M63 0C73.316 0 83.053 2.47948 91.6473 6.87501L91.0393 9.94114C82.671 5.50969 73.1286 3 63 3C29.8629 3 3 29.8629 3 63C3 96.1371 29.8629 123 63 123C96.1371 123 123 96.1371 123 63C123 55.1283 121.484 47.6106 118.728 40.723L121.573 39.7555C124.43 46.9476 126 54.7904 126 63C126 97.7939 97.7939 126 63 126C28.2061 126 0 97.7939 0 63C0 28.2061 28.2061 0 63 0ZM27.1124 64.6721L23.165 51.9086L21.3498 52.4699L25.2973 65.2335L27.1124 64.6721ZM28.5532 50.2421L25.6264 57.972L32.6726 62.9525L35.061 62.2138L27.6605 57.2383L30.8269 49.5389L28.5532 50.2421ZM38.6629 61.0998L34.7155 48.3363L32.8813 48.9036L36.8287 61.6671L38.6629 61.0998ZM42.0887 45.7838C41.2098 46.0556 40.4962 46.4787 39.9481 47.053C39.4127 47.6233 39.0588 48.284 38.8864 49.0352C38.5248 50.5287 38.6198 52.1671 39.1714 53.9504C39.7268 55.7465 40.5607 57.1564 41.6728 58.1802C42.2392 58.7028 42.9043 59.0484 43.6682 59.2169C44.4321 59.3854 45.2535 59.3337 46.1324 59.0619C47.0241 58.7861 47.744 58.3611 48.2921 57.7868C48.8402 57.2126 49.2049 56.5415 49.3861 55.7737C49.731 54.2714 49.6316 52.6413 49.0879 50.8835C48.5325 49.0874 47.6987 47.6775 46.5865 46.6537C46.0201 46.1311 45.3486 45.7874 44.572 45.6229C43.7954 45.4584 42.9676 45.512 42.0887 45.7838ZM45.6683 57.4259C44.6111 57.7529 43.6839 57.5303 42.8868 56.758C42.1024 55.9817 41.4817 54.8548 41.0248 53.3772C40.5638 51.8868 40.4399 50.6063 40.6531 49.5355C40.875 48.448 41.5146 47.7408 42.5719 47.4138C43.6291 47.0869 44.5499 47.3115 45.3343 48.0877C46.1275 48.8473 46.7545 49.9722 47.2154 51.4626C47.6724 52.9402 47.79 54.2227 47.568 55.3102C47.3588 56.3937 46.7256 57.099 45.6683 57.4259ZM61.2346 51.7743C61.01 52.402 60.5219 52.8321 59.7704 53.0645C59.3883 53.1827 58.8869 53.254 58.2665 53.2785C57.642 53.2901 57.1072 53.2532 56.6621 53.1676L56.5202 54.7397C57.8245 55.076 59.1199 55.0452 60.4064 54.6473C61.693 54.2494 62.5355 53.5213 62.9339 52.463C63.3323 51.4047 63.3306 50.2259 62.9288 48.9266C62.527 47.6273 61.8889 46.7151 61.0148 46.19C60.1366 45.6521 59.2708 45.5151 58.4174 45.779C57.5767 46.0391 56.9528 46.4134 56.5457 46.9022L55.5234 43.5967L60.2237 42.143L59.745 40.5953L53.4397 42.5454L55.3721 48.7934L56.6575 49.0239C57.0201 48.2558 57.5644 47.7595 58.2905 47.5349C59.0293 47.3064 59.6348 47.3913 60.1069 47.7896C60.5878 48.1712 60.9543 48.7697 61.2064 49.5849C61.4585 50.4001 61.4679 51.13 61.2346 51.7743ZM70.2283 48.9928C70.0038 49.6205 69.5157 50.0506 68.7642 50.283C68.382 50.4012 67.8807 50.4725 67.2602 50.4969C66.6358 50.5086 66.101 50.4716 65.6558 50.386L65.514 51.9581C66.8183 52.2944 68.1137 52.2636 69.4002 51.8658C70.6867 51.4679 71.5292 50.7398 71.9277 49.6815C72.3261 48.6232 72.3244 47.4444 71.9226 46.1451C71.5207 44.8458 70.8827 43.9336 70.0085 43.4084C69.1304 42.8705 68.2646 42.7336 67.4111 42.9975C66.5704 43.2575 65.9465 43.6319 65.5394 44.1207L64.5171 40.8152L69.2175 39.3615L68.7388 37.8138L62.4335 39.7639L64.3658 46.0119L65.6513 46.2424C66.0139 45.4743 66.5582 44.9779 67.2843 44.7534C68.0231 44.5249 68.6285 44.6098 69.1006 45.0081C69.5815 45.3897 69.948 45.9881 70.2002 46.8034C70.4523 47.6186 70.4617 48.3484 70.2283 48.9928ZM35.9207 74.1319L33.8954 74.7583L34.0695 85.3392L29.3964 75.103L27.734 75.6171L33.382 87.8547L35.6748 87.1455L35.3999 75.9677L41.4643 85.355L43.738 84.6518L41.4911 71.3624L39.8288 71.8765L41.7505 82.9637L35.9207 74.1319ZM47.4185 82.1947C48.4185 82.9461 49.6319 83.1012 51.0585 82.6599C52.1412 82.3251 53.0604 81.7547 53.816 80.9488L53.0102 79.9001C52.3307 80.501 51.5452 80.9393 50.6535 81.2151C49.7746 81.4869 49.0078 81.3542 48.3532 80.817C47.6986 80.2798 47.1911 79.4737 46.8308 78.3988L52.4482 76.6615C52.4226 75.9018 52.3409 75.2991 52.203 74.8532C51.8957 73.8597 51.3629 73.1522 50.6045 72.7308C49.8549 72.2927 48.9388 72.2411 47.8561 72.5759C46.5695 72.9738 45.7006 73.752 45.2494 74.9103C44.7943 76.056 44.7952 77.3676 45.2522 78.8452C45.7052 80.3101 46.4273 81.4266 47.4185 82.1947ZM49.814 74.1685C50.2164 74.4767 50.5239 74.9748 50.7367 75.6626L50.784 75.8155L46.6259 77.0596C46.5684 76.6029 46.6137 76.0725 46.7618 75.4684C46.8574 75.1457 47.0388 74.8524 47.3061 74.5883C47.5821 74.3075 47.9685 74.0903 48.4653 73.9367C48.9621 73.783 49.4117 73.8603 49.814 74.1685ZM55.6342 72.6407C56.233 71.8693 56.9273 71.3615 57.717 71.1172C58.9781 70.7272 59.9652 71.685 60.6782 73.9906C61.4504 76.4873 61.034 77.9838 59.429 78.4801C58.7029 78.7047 58.0663 78.7899 57.5192 78.7358L55.6342 72.6407ZM55.2146 71.2841L53.8496 66.8703L52.1299 67.4022L56.0596 80.1084C57.2423 80.4125 58.5087 80.3558 59.859 79.9382C62.6741 79.0676 63.5084 76.7789 62.362 73.0721C61.9168 71.6327 61.2473 70.6186 60.3534 70.0297C59.4556 69.4281 58.5226 69.2771 57.5545 69.5765C57.0578 69.7301 56.5861 69.9876 56.1396 70.349C55.7059 70.7065 55.3975 71.0181 55.2146 71.2841ZM74.0685 67.6303C74.8878 66.8047 75.1143 65.7995 74.7479 64.6149C74.1097 62.5513 72.6706 61.8241 70.4305 62.4331C70.0827 62.5268 69.533 62.6898 68.7814 62.9222L66.4312 63.6491L70.3786 76.4126L74.2574 75.213C75.6586 74.7796 76.607 74.1235 77.1028 73.2444C77.5985 72.3653 77.6671 71.3462 77.3086 70.1871C77.0526 69.3591 76.6738 68.7435 76.1723 68.3404C75.6796 67.9205 74.9783 67.6838 74.0685 67.6303ZM69.8728 68.2789L68.691 64.4575L69.589 64.1797C70.2769 63.967 70.8364 63.8358 71.2677 63.7862C71.5549 63.7671 71.7819 63.8016 71.9486 63.8896C72.1282 63.9736 72.298 64.1165 72.458 64.3182C72.6308 64.516 72.7921 64.8569 72.9418 65.341C73.0876 65.8123 73.0627 66.2735 72.8673 66.7247C72.668 67.1632 72.294 67.4882 71.7453 67.6998L69.8728 68.2789ZM75.4316 70.6838C75.8965 72.1869 75.2245 73.2182 73.4157 73.7776L71.7343 74.2976L70.3101 69.6928L71.7623 69.2437C72.8068 68.9207 73.5959 68.8999 74.1296 69.1815C74.7612 69.4188 75.1952 69.9196 75.4316 70.6838ZM78.239 59.3273L76.5002 59.8651L80.0399 71.3102C80.489 72.7624 81.3505 73.2914 82.6243 72.8975C83.3886 72.6611 83.9924 72.3348 84.4359 71.9185L83.7593 70.7461C83.4038 70.9956 83.0477 71.1755 82.6911 71.2858C82.2325 71.4276 81.9264 71.2501 81.7728 70.7534L78.239 59.3273ZM89.2855 70.8374C90.4829 70.467 91.3249 69.76 91.8116 68.7163C92.2982 67.6726 92.2717 66.2781 91.732 64.533C91.1884 62.7752 90.4358 61.6053 89.4742 61.0234C88.5255 60.4376 87.4524 60.3299 86.255 60.7002C85.0576 61.0705 84.2092 61.7795 83.7098 62.8271C83.2231 63.8709 83.2516 65.2717 83.7953 67.0295C84.335 68.7746 85.0856 69.9381 86.0471 70.52C87.0087 71.1019 88.0881 71.2077 89.2855 70.8374ZM85.5472 66.4668C84.7948 64.0338 85.1637 62.5868 86.6541 62.1259C87.3674 61.9053 87.9895 61.999 88.5205 62.407C89.0602 62.7983 89.5369 63.6628 89.9505 65.0003C90.3642 66.3378 90.4431 67.3601 90.1873 68.0672C89.9315 68.7744 89.4978 69.2225 88.8864 69.4116C87.4088 69.8686 86.2957 68.887 85.5472 66.4668ZM97.0191 57.4758L95.3846 57.8766C94.2636 58.2233 93.517 58.8101 93.1447 59.637C92.7685 60.4512 92.7399 61.3742 93.059 62.406C93.2678 63.0811 93.597 63.6492 94.0467 64.1103C94.4924 64.5586 95.0217 64.8485 95.6345 64.9799C95.3347 65.7705 95.2656 66.4269 95.4271 66.9491C95.5886 67.4714 95.8763 67.8151 96.2903 67.9801C95.3075 68.954 94.9697 69.9377 95.277 70.9313C95.5212 71.721 96.0415 72.23 96.8378 72.4583C97.6342 72.6865 98.6629 72.6056 99.9239 72.2156C101.198 71.8216 102.146 71.1865 102.768 70.3102C103.403 69.43 103.561 68.474 103.242 67.4422C103.017 66.7161 102.587 66.2281 101.951 65.9781C101.312 65.7153 100.534 65.7257 99.6165 66.0094L97.8586 66.553C97.1835 66.7618 96.779 66.6497 96.645 66.2166C96.5544 65.9236 96.5421 65.5227 96.608 65.0138C96.9462 64.979 97.2808 64.9104 97.612 64.808C98.7163 64.4525 99.4629 63.8657 99.8519 63.0476C100.237 62.2167 100.28 61.3172 99.9803 60.3491C99.6809 59.3811 99.1986 58.6789 98.5333 58.2426C99.3513 57.864 99.9866 57.5489 100.439 57.2973L99.898 56.2923C98.9341 56.7858 97.9745 57.1803 97.0191 57.4758ZM94.639 61.8964C94.1978 60.4697 94.6013 59.5634 95.8497 59.1773C96.512 58.9724 97.0385 59.005 97.429 59.275C97.8284 59.5283 98.1423 60.0244 98.3708 60.7632C98.8081 62.1771 98.4026 63.0771 97.1542 63.4632C95.9186 63.8453 95.0802 63.3231 94.639 61.8964ZM97.3642 68.3388L99.7144 67.612C100.351 67.415 100.814 67.3555 101.104 67.4335C101.397 67.5243 101.597 67.7416 101.703 68.0855C101.884 68.6715 101.79 69.2029 101.422 69.6799C101.057 70.1696 100.473 70.5385 99.6704 70.7867C98.8807 71.031 98.2338 71.1054 97.7298 71.0101C97.2297 70.9275 96.9107 70.6633 96.7729 70.2174C96.5483 69.4914 96.7454 68.8652 97.3642 68.3388Z" fill="black"/>
</svg>
